# This file uses centimeters as units for non-parametric coordinates.

mtllib MissileL.mtl
g default
v 0.534224 0.308434 -0.000000
v 0.308434 0.534223 -0.000000
v -0.000000 0.616868 -0.000000
v -0.308435 0.534223 -0.000000
v -0.534224 0.308434 -0.000000
v -0.616868 -0.000000 0.000000
v -0.534224 -0.308434 0.000000
v -0.308435 -0.534223 0.000000
v -0.000000 -0.616868 0.000000
v 0.308434 -0.534223 0.000000
v 0.534224 -0.308434 0.000000
v 0.616868 -0.000000 0.000000
v 0.403161 0.232765 8.084896
v 0.232765 0.403161 8.084896
v -0.000000 0.465530 8.084896
v -0.232766 0.403161 8.084896
v -0.403162 0.232765 8.084896
v -0.465529 -0.000000 8.084896
v -0.403162 -0.232765 8.084896
v -0.232766 -0.403161 8.084896
v -0.000000 -0.465530 8.084896
v 0.232765 -0.403161 8.084896
v 0.403161 -0.232765 8.084896
v 0.465529 -0.000000 8.084896
v -0.000000 -0.000000 0.176927
v -0.000000 -0.000000 8.376681
v 0.534224 0.308434 7.237468
v 0.308434 0.534223 7.237468
v -0.000000 0.616868 7.237468
v -0.308435 0.534223 7.237468
v -0.534224 0.308434 7.237468
v -0.616868 -0.000000 7.237468
v -0.534224 -0.308434 7.237468
v -0.308435 -0.534223 7.237468
v -0.000000 -0.616868 7.237468
v 0.308434 -0.534223 7.237468
v 0.534224 -0.308434 7.237468
v 0.616868 -0.000000 7.237468
v 0.505113 0.291627 7.694984
v 0.583254 -0.000000 7.694984
v 0.505113 -0.291627 7.694984
v 0.291626 -0.505113 7.694984
v -0.000000 -0.583254 7.694984
v -0.291626 -0.505113 7.694984
v -0.505113 -0.291627 7.694984
v -0.583254 -0.000000 7.694984
v -0.505113 0.291627 7.694984
v -0.291626 0.505113 7.694984
v -0.000000 0.583254 7.694984
v 0.291626 0.505113 7.694984
v -0.026569 -0.932875 6.474122
v 0.026569 -0.932875 6.474122
v -0.026569 -0.932875 6.830675
v 0.026569 -0.932875 6.830675
v -0.026569 -0.603256 6.912081
v 0.026569 -0.603256 6.912081
v -0.026569 -0.603256 6.429742
v 0.026569 -0.603256 6.429742
v -0.026569 -1.116013 2.445183
v 0.026569 -1.116013 2.445183
v -0.026569 -0.603256 2.916742
v 0.026569 -0.603256 2.916742
v -0.026569 -0.603256 0.548150
v 0.026569 -0.603256 0.548150
v -0.026569 -0.859660 0.548150
v -0.026569 -1.116013 0.804502
v 0.026569 -0.859660 0.548150
v 0.026569 -1.116013 0.804502
v 0.932875 -0.026568 6.474122
v 0.932875 0.026568 6.474122
v 0.932875 -0.026568 6.830675
v 0.932875 0.026568 6.830675
v 0.603257 -0.026568 6.912081
v 0.603257 0.026568 6.912081
v 0.603257 -0.026568 6.429742
v 0.603257 0.026568 6.429742
v 1.116013 -0.026568 2.445183
v 1.116013 0.026568 2.445183
v 0.603257 -0.026568 2.916742
v 0.603257 0.026568 2.916742
v 0.603256 -0.026568 0.548150
v 0.603256 0.026568 0.548150
v 0.859660 -0.026568 0.548150
v 1.116013 -0.026568 0.804502
v 0.859660 0.026568 0.548150
v 1.116013 0.026568 0.804502
v 0.026569 0.932875 6.474122
v -0.026569 0.932875 6.474122
v 0.026569 0.932875 6.830675
v -0.026569 0.932875 6.830675
v 0.026569 0.603256 6.912081
v -0.026569 0.603256 6.912081
v 0.026569 0.603256 6.429742
v -0.026569 0.603256 6.429742
v 0.026569 1.116013 2.445183
v -0.026569 1.116013 2.445183
v 0.026569 0.603256 2.916742
v -0.026569 0.603256 2.916742
v 0.026569 0.603256 0.548150
v -0.026569 0.603256 0.548150
v 0.026569 0.859660 0.548150
v 0.026569 1.116013 0.804502
v -0.026569 0.859660 0.548150
v -0.026569 1.116013 0.804502
v -0.932875 0.026568 6.474122
v -0.932875 -0.026568 6.474122
v -0.932875 0.026568 6.830675
v -0.932875 -0.026568 6.830675
v -0.603257 0.026568 6.912081
v -0.603257 -0.026568 6.912081
v -0.603257 0.026568 6.429742
v -0.603257 -0.026568 6.429742
v -1.116013 0.026568 2.445183
v -1.116013 -0.026568 2.445183
v -0.603257 0.026568 2.916742
v -0.603257 -0.026568 2.916742
v -0.603256 0.026568 0.548150
v -0.603256 -0.026568 0.548150
v -0.859661 0.026568 0.548150
v -1.116013 0.026568 0.804502
v -0.859661 -0.026568 0.548150
v -1.116013 -0.026568 0.804502
vt 0.128368 0.040284
vt 0.107556 0.019474
vt 0.079129 0.011857
vt 0.050700 0.019474
vt 0.029890 0.040285
vt 0.022272 0.068713
vt 0.029890 0.097141
vt 0.050701 0.117952
vt 0.079128 0.125569
vt 0.107557 0.117952
vt 0.128368 0.097141
vt 0.135985 0.068713
vt 0.027408 0.137372
vt 0.058571 0.137030
vt 0.089790 0.136655
vt 0.121065 0.136275
vt 0.152387 0.135913
vt 0.183744 0.135584
vt 0.215123 0.135299
vt 0.246513 0.135065
vt 0.277902 0.134884
vt 0.309275 0.134754
vt 0.340619 0.134666
vt 0.371919 0.134606
vt 0.403159 0.134550
vt 0.065373 0.937626
vt 0.088936 0.931660
vt 0.114108 0.927874
vt 0.140295 0.925438
vt 0.167127 0.923857
vt 0.194342 0.922833
vt 0.221728 0.922205
vt 0.249089 0.921918
vt 0.276227 0.922022
vt 0.302932 0.922690
vt 0.328952 0.924259
vt 0.353936 0.927321
vt 0.377275 0.932915
vt 0.079129 0.068713
vt 0.333871 0.977562
vt 0.404343 0.844666
vt 0.036878 0.847915
vt 0.067841 0.845947
vt 0.098604 0.843937
vt 0.129218 0.842210
vt 0.159722 0.840859
vt 0.190155 0.839901
vt 0.220552 0.839334
vt 0.250954 0.839163
vt 0.281399 0.839406
vt 0.311925 0.840090
vt 0.342566 0.841238
vt 0.373358 0.842821
vt 0.393413 0.893597
vt 0.048091 0.897262
vt 0.364867 0.888335
vt 0.336240 0.885318
vt 0.307553 0.883699
vt 0.278807 0.882949
vt 0.250006 0.882768
vt 0.221165 0.883003
vt 0.192308 0.883605
vt 0.163458 0.884609
vt 0.134633 0.886135
vt 0.105827 0.888415
vt 0.077001 0.891861
vt 0.647159 0.902730
vt 0.652775 0.902599
vt 0.653653 0.940288
vt 0.648036 0.940418
vt 0.649510 0.945840
vt 0.614869 0.955256
vt 0.613395 0.949835
vt 0.612208 0.898850
vt 0.612828 0.893266
vt 0.647778 0.897146
vt 0.687507 0.897097
vt 0.688695 0.948081
vt 0.719158 0.546682
vt 0.724562 0.546624
vt 0.726346 0.713474
vt 0.721001 0.713459
vt 0.724979 0.721296
vt 0.671956 0.766767
vt 0.669322 0.762048
vt 0.666732 0.521173
vt 0.666674 0.515769
vt 0.694682 0.515217
vt 0.692808 0.520892
vt 0.779017 0.760869
vt 0.776427 0.519993
vt 0.750351 0.520273
vt 0.722938 0.542820
vt 0.647159 0.902730
vt 0.652775 0.902599
vt 0.653653 0.940288
vt 0.648036 0.940418
vt 0.649510 0.945840
vt 0.614869 0.955256
vt 0.613395 0.949835
vt 0.612208 0.898850
vt 0.612828 0.893266
vt 0.647778 0.897146
vt 0.687507 0.897097
vt 0.688695 0.948081
vt 0.719158 0.546682
vt 0.724562 0.546624
vt 0.726346 0.713474
vt 0.721001 0.713459
vt 0.724979 0.721296
vt 0.671956 0.766767
vt 0.669322 0.762048
vt 0.666732 0.521173
vt 0.666674 0.515769
vt 0.694682 0.515217
vt 0.692808 0.520892
vt 0.779017 0.760869
vt 0.776427 0.519993
vt 0.750351 0.520273
vt 0.722938 0.542820
vt 0.647159 0.902730
vt 0.652775 0.902599
vt 0.653653 0.940288
vt 0.648036 0.940418
vt 0.649510 0.945840
vt 0.614869 0.955256
vt 0.613395 0.949835
vt 0.612208 0.898850
vt 0.612828 0.893266
vt 0.647778 0.897146
vt 0.687507 0.897097
vt 0.688695 0.948081
vt 0.719158 0.546682
vt 0.724562 0.546624
vt 0.726346 0.713474
vt 0.721001 0.713459
vt 0.724979 0.721296
vt 0.671956 0.766767
vt 0.669322 0.762048
vt 0.666732 0.521173
vt 0.666674 0.515769
vt 0.694682 0.515217
vt 0.692808 0.520892
vt 0.779017 0.760869
vt 0.776427 0.519993
vt 0.750351 0.520273
vt 0.722938 0.542820
vt 0.647159 0.902730
vt 0.652775 0.902599
vt 0.653653 0.940288
vt 0.648036 0.940418
vt 0.649510 0.945840
vt 0.614869 0.955256
vt 0.613395 0.949835
vt 0.612208 0.898850
vt 0.612828 0.893266
vt 0.647778 0.897146
vt 0.687507 0.897097
vt 0.688695 0.948081
vt 0.719158 0.546682
vt 0.724562 0.546624
vt 0.726346 0.713474
vt 0.721001 0.713459
vt 0.724979 0.721296
vt 0.671956 0.766767
vt 0.669322 0.762048
vt 0.666732 0.521173
vt 0.666674 0.515769
vt 0.694682 0.515217
vt 0.692808 0.520892
vt 0.779017 0.760869
vt 0.776427 0.519993
vt 0.750351 0.520273
vt 0.722938 0.542820
vt 0.311907 0.975642
vt 0.287866 0.974652
vt 0.262518 0.974293
vt 0.236433 0.974375
vt 0.210089 0.974802
vt 0.183925 0.975571
vt 0.158376 0.976762
vt 0.133925 0.978545
vt 0.111181 0.981191
vt 0.091072 0.985082
vt 0.352541 0.980784
vn 0.866018 0.499995 0.004208
vn 0.499995 0.866018 0.004208
vn 0.493121 0.854113 0.165298
vn 0.854112 0.493122 0.165298
vn 0.000000 0.999991 0.004208
vn -0.000000 0.986244 0.165298
vn -0.499996 0.866018 0.004208
vn -0.493122 0.854112 0.165298
vn -0.866018 0.499995 0.004208
vn -0.854112 0.493122 0.165298
vn -0.999991 -0.000000 0.004208
vn -0.986244 -0.000000 0.165298
vn -0.866018 -0.499995 0.004208
vn -0.854112 -0.493122 0.165298
vn -0.499996 -0.866018 0.004208
vn -0.493121 -0.854112 0.165298
vn 0.000000 -0.999991 0.004208
vn 0.000000 -0.986244 0.165298
vn 0.499995 -0.866018 0.004208
vn 0.493121 -0.854113 0.165298
vn 0.866018 -0.499995 0.004208
vn 0.854112 -0.493122 0.165298
vn 0.999991 0.000000 0.004208
vn 0.986244 0.000000 0.165298
vn -0.137850 -0.238763 -0.961244
vn -0.238763 -0.137849 -0.961244
vn 0.000000 -0.000000 -1.000000
vn 0.000000 -0.275699 -0.961244
vn 0.137850 -0.238763 -0.961244
vn 0.238763 -0.137850 -0.961244
vn 0.275699 0.000000 -0.961244
vn 0.238763 0.137850 -0.961244
vn 0.137850 0.238763 -0.961244
vn 0.000000 0.275699 -0.961244
vn -0.137850 0.238763 -0.961244
vn -0.238763 0.137849 -0.961244
vn -0.275699 -0.000000 -0.961244
vn 0.749507 0.432727 0.500986
vn 0.432728 0.749506 0.500986
vn -0.000000 -0.000000 1.000000
vn -0.000001 0.865455 0.500987
vn -0.432729 0.749506 0.500986
vn -0.749507 0.432727 0.500985
vn -0.865456 0.000000 0.500986
vn -0.749507 -0.432727 0.500985
vn -0.432728 -0.749506 0.500986
vn 0.000001 -0.865455 0.500987
vn 0.432728 -0.749506 0.500986
vn 0.749507 -0.432727 0.500986
vn 0.865455 -0.000000 0.500986
vn 0.866026 0.499999 0.000000
vn 0.500000 0.866026 0.000000
vn 0.000000 1.000000 0.000000
vn -0.500000 0.866025 0.000000
vn -0.866026 0.499999 0.000000
vn -1.000000 0.000000 0.000000
vn -0.866026 -0.499999 0.000000
vn -0.500000 -0.866025 0.000000
vn 0.000000 -1.000000 0.000000
vn 0.500000 -0.866026 0.000000
vn 0.866026 -0.499999 0.000000
vn 1.000000 0.000000 0.000000
vn 0.000000 -1.000000 0.000000
vn 0.000000 -1.000000 0.000000
vn 0.000000 -1.000000 0.000000
vn 0.000000 -1.000000 0.000000
vn 0.000000 -0.239765 0.970831
vn 0.000000 -0.239765 0.970831
vn 0.000000 -0.239765 0.970831
vn 0.000000 -0.239765 0.970831
vn 0.000000 -0.133437 -0.991057
vn 0.000000 -0.133437 -0.991057
vn 0.000000 -0.133437 -0.991057
vn 0.000000 -0.133437 -0.991057
vn 1.000000 0.000000 0.000000
vn 1.000000 0.000000 0.000000
vn 1.000000 0.000000 0.000000
vn 1.000000 0.000000 0.000000
vn -1.000000 0.000000 0.000000
vn -1.000000 0.000000 0.000000
vn -1.000000 0.000000 0.000000
vn -1.000000 0.000000 0.000000
vn 0.000000 -1.000000 -0.000000
vn 0.000000 -1.000000 -0.000000
vn 0.000000 -1.000000 -0.000000
vn 0.000000 -1.000000 -0.000000
vn 0.000000 -0.676918 0.736058
vn 0.000000 -0.676918 0.736058
vn 0.000000 -0.676918 0.736058
vn 0.000000 -0.676918 0.736058
vn 0.000000 0.000000 -1.000000
vn 0.000000 0.000000 -1.000000
vn 0.000000 0.000000 -1.000000
vn 0.000000 0.000000 -1.000000
vn -1.000000 0.000000 0.000000
vn -1.000000 0.000000 0.000000
vn -1.000000 -0.000000 0.000000
vn -1.000000 -0.000000 0.000000
vn -1.000000 -0.000000 0.000000
vn 1.000000 0.000000 0.000000
vn 1.000000 -0.000000 0.000000
vn 1.000000 0.000000 0.000000
vn 1.000000 -0.000000 0.000000
vn 1.000000 -0.000000 0.000000
vn 0.000000 -0.707107 -0.707107
vn 0.000000 -0.707107 -0.707107
vn 0.000000 -0.707107 -0.707107
vn 0.000000 -0.707107 -0.707107
vn 1.000000 0.000000 0.000000
vn 1.000000 0.000000 0.000000
vn 1.000000 0.000000 0.000000
vn 1.000000 0.000000 0.000000
vn 0.239765 0.000000 0.970831
vn 0.239765 0.000000 0.970831
vn 0.239765 0.000000 0.970831
vn 0.239765 0.000000 0.970831
vn 0.133437 0.000000 -0.991057
vn 0.133437 0.000000 -0.991057
vn 0.133437 0.000000 -0.991057
vn 0.133437 0.000000 -0.991057
vn 0.000000 1.000000 0.000000
vn 0.000000 1.000000 0.000000
vn 0.000000 1.000000 0.000000
vn 0.000000 1.000000 0.000000
vn 0.000000 -1.000000 0.000000
vn 0.000000 -1.000000 0.000000
vn 0.000000 -1.000000 0.000000
vn 0.000000 -1.000000 0.000000
vn 1.000000 0.000000 0.000000
vn 1.000000 0.000000 0.000000
vn 1.000000 0.000000 0.000000
vn 1.000000 0.000000 0.000000
vn 0.676919 0.000000 0.736058
vn 0.676919 0.000000 0.736058
vn 0.676919 0.000000 0.736058
vn 0.676919 0.000000 0.736058
vn 0.000000 0.000000 -1.000000
vn 0.000000 0.000000 -1.000000
vn 0.000000 0.000000 -1.000000
vn 0.000000 0.000000 -1.000000
vn 0.000000 -1.000000 0.000000
vn 0.000000 -1.000000 0.000000
vn 0.000000 -1.000000 0.000000
vn 0.000000 -1.000000 0.000000
vn 0.000000 -1.000000 0.000000
vn 0.000000 1.000000 0.000000
vn 0.000000 1.000000 0.000000
vn 0.000000 1.000000 -0.000000
vn 0.000000 1.000000 -0.000000
vn 0.000000 1.000000 0.000000
vn 0.707105 0.000000 -0.707108
vn 0.707105 0.000000 -0.707108
vn 0.707105 0.000000 -0.707108
vn 0.707105 0.000000 -0.707108
vn 0.000000 1.000000 0.000000
vn 0.000000 1.000000 0.000000
vn 0.000000 1.000000 0.000000
vn 0.000000 1.000000 0.000000
vn 0.000000 0.239765 0.970831
vn 0.000000 0.239765 0.970831
vn 0.000000 0.239765 0.970831
vn 0.000000 0.239765 0.970831
vn 0.000000 0.133437 -0.991057
vn 0.000000 0.133437 -0.991057
vn 0.000000 0.133437 -0.991057
vn 0.000000 0.133437 -0.991057
vn -1.000000 0.000000 0.000000
vn -1.000000 0.000000 0.000000
vn -1.000000 0.000000 0.000000
vn -1.000000 0.000000 0.000000
vn 1.000000 0.000000 0.000000
vn 1.000000 0.000000 0.000000
vn 1.000000 0.000000 0.000000
vn 1.000000 0.000000 0.000000
vn 0.000000 1.000000 -0.000000
vn 0.000000 1.000000 -0.000000
vn 0.000000 1.000000 -0.000000
vn 0.000000 1.000000 -0.000000
vn 0.000000 0.676918 0.736058
vn 0.000000 0.676918 0.736058
vn 0.000000 0.676918 0.736058
vn 0.000000 0.676918 0.736058
vn 0.000000 0.000000 -1.000000
vn 0.000000 0.000000 -1.000000
vn 0.000000 0.000000 -1.000000
vn 0.000000 0.000000 -1.000000
vn 1.000000 -0.000000 0.000000
vn 1.000000 -0.000000 0.000000
vn 1.000000 -0.000000 0.000000
vn 1.000000 0.000000 0.000000
vn 1.000000 0.000000 0.000000
vn -1.000000 0.000000 0.000000
vn -1.000000 0.000000 0.000000
vn -1.000000 0.000000 0.000000
vn -1.000000 0.000000 0.000000
vn -1.000000 0.000000 0.000000
vn 0.000000 0.707107 -0.707107
vn 0.000000 0.707107 -0.707107
vn 0.000000 0.707107 -0.707107
vn 0.000000 0.707107 -0.707107
vn -1.000000 0.000000 0.000000
vn -1.000000 0.000000 0.000000
vn -1.000000 0.000000 0.000000
vn -1.000000 0.000000 0.000000
vn -0.239765 0.000000 0.970831
vn -0.239765 0.000000 0.970831
vn -0.239765 0.000000 0.970831
vn -0.239765 0.000000 0.970831
vn -0.133437 0.000000 -0.991057
vn -0.133437 0.000000 -0.991057
vn -0.133437 0.000000 -0.991057
vn -0.133437 0.000000 -0.991057
vn 0.000000 -1.000000 0.000000
vn 0.000000 -1.000000 0.000000
vn 0.000000 -1.000000 0.000000
vn 0.000000 -1.000000 0.000000
vn 0.000000 1.000000 0.000000
vn 0.000000 1.000000 0.000000
vn 0.000000 1.000000 0.000000
vn 0.000000 1.000000 0.000000
vn -1.000000 0.000000 0.000000
vn -1.000000 0.000000 0.000000
vn -1.000000 0.000000 0.000000
vn -1.000000 0.000000 0.000000
vn -0.676919 0.000000 0.736058
vn -0.676919 0.000000 0.736058
vn -0.676919 0.000000 0.736058
vn -0.676919 0.000000 0.736058
vn 0.000000 0.000000 -1.000000
vn 0.000000 0.000000 -1.000000
vn 0.000000 0.000000 -1.000000
vn 0.000000 0.000000 -1.000000
vn 0.000000 1.000000 0.000000
vn 0.000000 1.000000 -0.000000
vn 0.000000 1.000000 0.000000
vn 0.000000 1.000000 -0.000000
vn 0.000000 1.000000 0.000000
vn 0.000000 -1.000000 -0.000000
vn 0.000000 -1.000000 -0.000000
vn 0.000000 -1.000000 0.000000
vn 0.000000 -1.000000 0.000000
vn 0.000000 -1.000000 0.000000
vn -0.707107 0.000000 -0.707107
vn -0.707107 0.000000 -0.707107
vn -0.707107 0.000000 -0.707107
vn -0.707107 0.000000 -0.707107
s 1
g group9_group7_pCylinder2
usemtl initialShadingGroup
f 27/42/1 28/43/2 50/66/3 39/55/4
f 28/43/2 29/44/5 49/65/6 50/66/3
f 29/44/5 30/45/7 48/64/8 49/65/6
f 30/45/7 31/46/9 47/63/10 48/64/8
f 31/46/9 32/47/11 46/62/12 47/63/10
f 32/47/11 33/48/13 45/61/14 46/62/12
f 33/48/13 34/49/15 44/60/16 45/61/14
f 34/49/15 35/50/17 43/59/18 44/60/16
f 35/50/17 36/51/19 42/58/20 43/59/18
f 36/51/19 37/52/21 41/57/22 42/58/20
f 37/52/21 38/53/23 40/56/24 41/57/22
f 38/53/23 27/41/1 39/54/4 40/56/24
s 2
f 2/2/25 1/1/26 25/39/27
f 3/3/28 2/2/25 25/39/27
f 4/4/29 3/3/28 25/39/27
f 5/5/30 4/4/29 25/39/27
f 6/6/31 5/5/30 25/39/27
f 7/7/32 6/6/31 25/39/27
f 8/8/33 7/7/32 25/39/27
f 9/9/34 8/8/33 25/39/27
f 10/10/35 9/9/34 25/39/27
f 11/11/36 10/10/35 25/39/27
f 12/12/37 11/11/36 25/39/27
f 1/1/26 12/12/37 25/39/27
s 1
f 13/26/38 14/27/39 26/184/40
f 14/27/39 15/28/41 26/183/40
f 15/28/41 16/29/42 26/182/40
f 16/29/42 17/30/43 26/181/40
f 17/30/43 18/31/44 26/180/40
f 18/31/44 19/32/45 26/179/40
f 19/32/45 20/33/46 26/178/40
f 20/33/46 21/34/47 26/177/40
f 21/34/47 22/35/48 26/176/40
f 22/35/48 23/36/49 26/175/40
f 23/36/49 24/37/50 26/40/40
f 24/37/50 13/38/38 26/185/40
f 1/13/51 2/14/52 28/43/2 27/42/1
f 2/14/52 3/15/53 29/44/5 28/43/2
f 3/15/53 4/16/54 30/45/7 29/44/5
f 4/16/54 5/17/55 31/46/9 30/45/7
f 5/17/55 6/18/56 32/47/11 31/46/9
f 6/18/56 7/19/57 33/48/13 32/47/11
f 7/19/57 8/20/58 34/49/15 33/48/13
f 8/20/58 9/21/59 35/50/17 34/49/15
f 9/21/59 10/22/60 36/51/19 35/50/17
f 10/22/60 11/23/61 37/52/21 36/51/19
f 11/23/61 12/24/62 38/53/23 37/52/21
f 12/24/62 1/25/51 27/41/1 38/53/23
f 40/56/24 39/54/4 13/38/38 24/37/50
f 41/57/22 40/56/24 24/37/50 23/36/49
f 42/58/20 41/57/22 23/36/49 22/35/48
f 43/59/18 42/58/20 22/35/48 21/34/47
f 44/60/16 43/59/18 21/34/47 20/33/46
f 45/61/14 44/60/16 20/33/46 19/32/45
f 46/62/12 45/61/14 19/32/45 18/31/44
f 47/63/10 46/62/12 18/31/44 17/30/43
f 48/64/8 47/63/10 17/30/43 16/29/42
f 49/65/6 48/64/8 16/29/42 15/28/41
f 50/66/3 49/65/6 15/28/41 14/27/39
f 39/55/4 50/66/3 14/27/39 13/26/38
s off
f 51/67/63 52/68/64 54/69/65 53/70/66
f 53/70/67 54/71/68 56/72/69 55/73/70
f 57/74/71 58/75/72 52/76/73 51/67/74
f 52/68/75 58/77/76 56/78/77 54/69/78
f 57/74/79 51/67/80 53/70/81 55/73/82
f 66/79/83 68/80/84 60/81/85 59/82/86
f 59/82/87 60/83/88 62/84/89 61/85/90
f 63/86/91 64/87/92 67/88/93 65/89/94
s 3
f 61/85/95 63/86/96 59/82/97
f 63/86/96 65/89/98 59/82/97
f 65/89/98 66/79/99 59/82/97
s 4
f 62/90/100 60/81/101 64/91/102
f 64/91/102 60/81/101 67/92/103
f 68/80/104 67/92/103 60/81/101
s off
f 66/79/105 65/89/106 67/88/107 68/93/108
f 69/94/109 70/95/110 72/96/111 71/97/112
f 71/97/113 72/98/114 74/99/115 73/100/116
f 75/101/117 76/102/118 70/103/119 69/94/120
f 70/95/121 76/104/122 74/105/123 72/96/124
f 75/101/125 69/94/126 71/97/127 73/100/128
f 84/106/129 86/107/130 78/108/131 77/109/132
f 77/109/133 78/110/134 80/111/135 79/112/136
f 81/113/137 82/114/138 85/115/139 83/116/140
s 5
f 79/112/141 81/113/142 77/109/143
f 81/113/142 83/116/144 77/109/143
f 83/116/144 84/106/145 77/109/143
s 6
f 80/117/146 78/108/147 82/118/148
f 82/118/148 78/108/147 85/119/149
f 86/107/150 85/119/149 78/108/147
s off
f 84/106/151 83/116/152 85/115/153 86/120/154
f 87/121/155 88/122/156 90/123/157 89/124/158
f 89/124/159 90/125/160 92/126/161 91/127/162
f 93/128/163 94/129/164 88/130/165 87/121/166
f 88/122/167 94/131/168 92/132/169 90/123/170
f 93/128/171 87/121/172 89/124/173 91/127/174
f 102/133/175 104/134/176 96/135/177 95/136/178
f 95/136/179 96/137/180 98/138/181 97/139/182
f 99/140/183 100/141/184 103/142/185 101/143/186
s 7
f 97/139/187 99/140/188 95/136/189
f 99/140/188 101/143/190 95/136/189
f 101/143/190 102/133/191 95/136/189
s 8
f 98/144/192 96/135/193 100/145/194
f 100/145/194 96/135/193 103/146/195
f 104/134/196 103/146/195 96/135/193
s off
f 102/133/197 101/143/198 103/142/199 104/147/200
f 105/148/201 106/149/202 108/150/203 107/151/204
f 107/151/205 108/152/206 110/153/207 109/154/208
f 111/155/209 112/156/210 106/157/211 105/148/212
f 106/149/213 112/158/214 110/159/215 108/150/216
f 111/155/217 105/148/218 107/151/219 109/154/220
f 120/160/221 122/161/222 114/162/223 113/163/224
f 113/163/225 114/164/226 116/165/227 115/166/228
f 117/167/229 118/168/230 121/169/231 119/170/232
s 9
f 115/166/233 117/167/234 113/163/235
f 117/167/234 119/170/236 113/163/235
f 119/170/236 120/160/237 113/163/235
s 10
f 116/171/238 114/162/239 118/172/240
f 118/172/240 114/162/239 121/173/241
f 122/161/242 121/173/241 114/162/239
s off
f 120/160/243 119/170/244 121/169/245 122/174/246
